<svg width="63" height="62" viewBox="0 0 63 62" fill="none" xmlns="http://www.w3.org/2000/svg">
<g clip-path="url(#clip0_0_2271)">
<path d="M0.5 0H54.5C58.9183 0 62.5 3.58172 62.5 8V54C62.5 58.4183 58.9183 62 54.5 62H0.5V0Z" fill="#5E81F4"/>
<path fill-rule="evenodd" clip-rule="evenodd" d="M30.417 23.3334C26.2288 23.3334 22.8337 26.7285 22.8337 30.9167C22.8337 35.1048 26.2288 38.5 30.417 38.5C34.6052 38.5 38.0003 35.1048 38.0003 30.9167C38.0003 26.7285 34.6052 23.3334 30.417 23.3334ZM20.667 30.9167C20.667 25.5319 25.0322 21.1667 30.417 21.1667C35.8018 21.1667 40.167 25.5319 40.167 30.9167C40.167 36.3015 35.8018 40.6667 30.417 40.6667C25.0322 40.6667 20.667 36.3015 20.667 30.9167Z" fill="white"/>
<path fill-rule="evenodd" clip-rule="evenodd" d="M35.7714 36.2715C36.1945 35.8484 36.8804 35.8484 37.3035 36.2715L42.016 40.984C42.439 41.407 42.439 42.093 42.016 42.516C41.5929 42.9391 40.907 42.9391 40.4839 42.516L35.7714 37.8035C35.3483 37.3805 35.3483 36.6945 35.7714 36.2715Z" fill="white"/>
</g>
<defs>
<clipPath id="clip0_0_2271">
<rect width="62" height="62" fill="white" transform="translate(0.5)"/>
</clipPath>
</defs>
</svg>
