<svg width="27" height="26" viewBox="0 0 27 26" fill="none" xmlns="http://www.w3.org/2000/svg">
<g clip-path="url(#clip0_0_2542)">
<path fill-rule="evenodd" clip-rule="evenodd" d="M0.5 2.4375C0.5 2.22201 0.585602 2.01535 0.737976 1.86298C0.890349 1.7106 1.09701 1.625 1.3125 1.625H3.75C3.93124 1.62505 4.10726 1.68569 4.25006 1.79729C4.39287 1.90889 4.49427 2.06502 4.53813 2.24087L5.19625 4.875H24.0625C24.1827 4.87507 24.3013 4.9018 24.4099 4.95325C24.5185 5.0047 24.6143 5.07959 24.6905 5.17254C24.7666 5.26548 24.8212 5.37416 24.8503 5.49075C24.8794 5.60733 24.8823 5.72892 24.8587 5.84675L23.2337 13.9717C23.1982 14.1489 23.1046 14.3092 22.9677 14.4272C22.8309 14.5452 22.6586 14.6143 22.4781 14.6234L7.208 15.3904L7.67438 17.875H21.625C21.8405 17.875 22.0472 17.9606 22.1995 18.113C22.3519 18.2653 22.4375 18.472 22.4375 18.6875C22.4375 18.903 22.3519 19.1097 22.1995 19.262C22.0472 19.4144 21.8405 19.5 21.625 19.5H7C6.81058 19.4998 6.62717 19.4335 6.48148 19.3124C6.33579 19.1913 6.23698 19.0232 6.20213 18.837L3.76625 5.86138L3.11625 3.25H1.3125C1.09701 3.25 0.890349 3.1644 0.737976 3.01202C0.585602 2.85965 0.5 2.65299 0.5 2.4375ZM5.54075 6.5L6.90575 13.7784L21.7648 13.0325L23.0713 6.5H5.54075ZM8.625 19.5C7.76305 19.5 6.9364 19.8424 6.3269 20.4519C5.71741 21.0614 5.375 21.888 5.375 22.75C5.375 23.612 5.71741 24.4386 6.3269 25.0481C6.9364 25.6576 7.76305 26 8.625 26C9.48695 26 10.3136 25.6576 10.9231 25.0481C11.5326 24.4386 11.875 23.612 11.875 22.75C11.875 21.888 11.5326 21.0614 10.9231 20.4519C10.3136 19.8424 9.48695 19.5 8.625 19.5ZM20 19.5C19.138 19.5 18.3114 19.8424 17.7019 20.4519C17.0924 21.0614 16.75 21.888 16.75 22.75C16.75 23.612 17.0924 24.4386 17.7019 25.0481C18.3114 25.6576 19.138 26 20 26C20.862 26 21.6886 25.6576 22.2981 25.0481C22.9076 24.4386 23.25 23.612 23.25 22.75C23.25 21.888 22.9076 21.0614 22.2981 20.4519C21.6886 19.8424 20.862 19.5 20 19.5ZM8.625 21.125C8.19402 21.125 7.7807 21.2962 7.47595 21.601C7.17121 21.9057 7 22.319 7 22.75C7 23.181 7.17121 23.5943 7.47595 23.899C7.7807 24.2038 8.19402 24.375 8.625 24.375C9.05598 24.375 9.4693 24.2038 9.77405 23.899C10.0788 23.5943 10.25 23.181 10.25 22.75C10.25 22.319 10.0788 21.9057 9.77405 21.601C9.4693 21.2962 9.05598 21.125 8.625 21.125ZM20 21.125C19.569 21.125 19.1557 21.2962 18.851 21.601C18.5462 21.9057 18.375 22.319 18.375 22.75C18.375 23.181 18.5462 23.5943 18.851 23.899C19.1557 24.2038 19.569 24.375 20 24.375C20.431 24.375 20.8443 24.2038 21.149 23.899C21.4538 23.5943 21.625 23.181 21.625 22.75C21.625 22.319 21.4538 21.9057 21.149 21.601C20.8443 21.2962 20.431 21.125 20 21.125Z" fill="#9AD2AE"/>
</g>
<defs>
<clipPath id="clip0_0_2542">
<rect width="26" height="26" fill="white" transform="translate(0.5)"/>
</clipPath>
</defs>
</svg>
