<svg width="18" height="19" viewBox="0 0 18 19" fill="none" xmlns="http://www.w3.org/2000/svg">
<path d="M7.24888 3.02611C7.8358 2.08213 9.20967 2.08214 9.79659 3.02611L11.0561 5.05186C11.2626 5.38399 11.5907 5.62233 11.9703 5.71609L14.2862 6.28797C15.3653 6.55446 15.7899 7.86109 15.0734 8.71099L13.5361 10.5348C13.284 10.8339 13.1587 11.2195 13.1868 11.6096L13.3586 13.9888C13.4386 15.0975 12.3271 15.905 11.2974 15.4863L9.08777 14.5878C8.72548 14.4404 8.31999 14.4404 7.95771 14.5878L5.74803 15.4863C4.71835 15.905 3.60686 15.0975 3.68689 13.9888L3.85863 11.6096C3.88678 11.2195 3.76148 10.8339 3.50942 10.5348L1.97203 8.71098C1.25562 7.86109 1.68017 6.55446 2.75931 6.28797L5.07513 5.71609C5.45481 5.62233 5.78287 5.38399 5.98937 5.05186L7.24888 3.02611Z" fill="#F6C002"/>
</svg>
