<svg width="28" height="29" viewBox="0 0 28 29" fill="none" xmlns="http://www.w3.org/2000/svg">
<circle cx="14" cy="14.0227" r="14" fill="#E0D8CD"/>
<g clip-path="url(#clip0_0_2339)">
<path d="M7.25 20.75H8.75M8.75 20.75H19.25M8.75 20.75V11.996M20.75 20.75H19.25M19.25 20.75V11.996M8.75 11.996C8.72196 11.9799 8.69444 11.9629 8.6675 11.945L8.2625 11.675C7.97619 11.4841 7.76426 11.2004 7.66225 10.8718C7.56025 10.5431 7.57437 10.1893 7.70225 9.86978L8.37275 8.19278C8.48412 7.91446 8.67632 7.67589 8.92457 7.50785C9.17282 7.33981 9.46573 7.25001 9.7655 7.25003H18.2345C18.5343 7.25001 18.8272 7.33981 19.0754 7.50785C19.3237 7.67589 19.5159 7.91446 19.6273 8.19278L20.2977 9.86978C20.4256 10.1893 20.4398 10.5431 20.3377 10.8718C20.2357 11.2004 20.0238 11.4841 19.7375 11.675L19.3325 11.945C19.3056 11.9629 19.278 11.9799 19.25 11.996M8.75 11.996C8.99229 12.136 9.26888 12.2053 9.54853 12.1963C9.82817 12.1873 10.0997 12.1003 10.3325 11.945L11.75 11L13.1675 11.945C13.414 12.1095 13.7037 12.1973 14 12.1973C14.2963 12.1973 14.586 12.1095 14.8325 11.945L16.25 11L17.6675 11.945C17.9003 12.1003 18.1718 12.1873 18.4515 12.1963C18.7311 12.2053 19.0077 12.136 19.25 11.996" stroke="#145940" stroke-width="2" stroke-linecap="round" stroke-linejoin="round"/>
<path d="M15.5 20.75V17C15.5 16.6022 15.342 16.2207 15.0607 15.9394C14.7794 15.6581 14.3978 15.5 14 15.5C13.6022 15.5 13.2206 15.6581 12.9393 15.9394C12.658 16.2207 12.5 16.6022 12.5 17V20.75" stroke="#145940" stroke-width="2"/>
</g>
<defs>
<clipPath id="clip0_0_2339">
<rect width="18" height="18" fill="white" transform="translate(5 5.00003)"/>
</clipPath>
</defs>
</svg>
