<svg width="28" height="29" viewBox="0 0 28 29" fill="none" xmlns="http://www.w3.org/2000/svg">
<circle cx="14" cy="14.0227" r="14" fill="#5E81F4"/>
<path d="M14 5.85074L9.05 10.8007C8.07111 11.7797 7.40449 13.027 7.13445 14.3849C6.86442 15.7427 7.00308 17.1501 7.53292 18.4292C8.06275 19.7082 8.95996 20.8014 10.1111 21.5706C11.2622 22.3397 12.6156 22.7502 14 22.7502C15.3844 22.7502 16.7378 22.3397 17.8889 21.5706C19.04 20.8014 19.9373 19.7082 20.4671 18.4292C20.9969 17.1501 21.1356 15.7427 20.8656 14.3849C20.5955 13.027 19.9289 11.7797 18.95 10.8007L14 5.85074ZM14 3.02274L20.364 9.38674C21.6227 10.6454 22.4798 12.2491 22.8271 13.9949C23.1743 15.7407 22.9961 17.5503 22.3149 19.1948C21.6337 20.8394 20.4802 22.245 19.0001 23.2339C17.5201 24.2228 15.78 24.7507 14 24.7507C12.22 24.7507 10.4799 24.2228 8.99988 23.2339C7.51984 22.245 6.36629 20.8394 5.6851 19.1948C5.00391 17.5503 4.82567 15.7407 5.17293 13.9949C5.52019 12.2491 6.37734 10.6454 7.636 9.38674L14 3.02274ZM9 15.7507H19C19 17.0768 18.4732 18.3486 17.5355 19.2863C16.5979 20.224 15.3261 20.7507 14 20.7507C12.6739 20.7507 11.4022 20.224 10.4645 19.2863C9.52679 18.3486 9 17.0768 9 15.7507Z" fill="white"/>
<circle cx="11" cy="13.0227" r="1" fill="white"/>
<circle cx="17" cy="13.0227" r="1" fill="white"/>
</svg>
