<svg width="24" height="25" viewBox="0 0 24 25" fill="none" xmlns="http://www.w3.org/2000/svg">
<path d="M12 2.66867C15.1807 2.66867 15.6145 2.66867 16.9157 2.66867C18.0723 2.66867 18.6506 2.95783 19.0843 3.10241C19.6627 3.39157 20.0964 3.53615 20.5301 3.96988C20.9639 4.40362 21.253 4.83735 21.3976 5.41566C21.5422 5.8494 21.6867 6.42771 21.8313 7.58434C21.8313 8.88554 21.8313 9.1747 21.8313 12.5C21.8313 15.8253 21.8313 16.1145 21.8313 17.4157C21.8313 18.5723 21.5422 19.1506 21.3976 19.5843C21.1084 20.1627 20.9639 20.5964 20.5301 21.0301C20.0964 21.4639 19.6627 21.753 19.0843 21.8976C18.6506 22.0422 18.0723 22.1867 16.9157 22.3313C15.6145 22.3313 15.3253 22.3313 12 22.3313C8.6747 22.3313 8.38554 22.3313 7.08434 22.3313C5.92771 22.3313 5.3494 22.0422 4.91566 21.8976C4.33735 21.6084 3.90362 21.4639 3.46988 21.0301C3.03615 20.5964 2.74699 20.1627 2.60241 19.5843C2.45783 19.1506 2.31325 18.5723 2.16867 17.4157C2.16867 16.1145 2.16867 15.8253 2.16867 12.5C2.16867 9.1747 2.16867 8.88554 2.16867 7.58434C2.16867 6.42771 2.45783 5.8494 2.60241 5.41566C2.89157 4.83735 3.03615 4.40362 3.46988 3.96988C3.90362 3.53615 4.33735 3.24699 4.91566 3.10241C5.3494 2.95783 5.92771 2.81325 7.08434 2.66867C8.38554 2.66867 8.81928 2.66867 12 2.66867ZM12 0.5C8.6747 0.5 8.38554 0.5 7.08434 0.5C5.78313 0.5 4.91566 0.789157 4.19277 1.07831C3.46988 1.36747 2.74699 1.80121 2.0241 2.5241C1.30121 3.24699 1.01205 3.8253 0.578314 4.69277C0.289157 5.41566 0.144578 6.28313 0 7.58434C0 8.88554 0 9.31928 0 12.5C0 15.8253 0 16.1145 0 17.4157C0 18.7169 0.289157 19.5843 0.578314 20.3072C0.867471 21.0301 1.30121 21.753 2.0241 22.4759C2.74699 23.1988 3.3253 23.488 4.19277 23.9217C4.91566 24.2108 5.78313 24.3554 7.08434 24.5C8.38554 24.5 8.81928 24.5 12 24.5C15.1807 24.5 15.6145 24.5 16.9157 24.5C18.2169 24.5 19.0843 24.2108 19.8072 23.9217C20.5301 23.6325 21.253 23.1988 21.9759 22.4759C22.6988 21.753 22.988 21.1747 23.4217 20.3072C23.7108 19.5843 23.8554 18.7169 24 17.4157C24 16.1145 24 15.6807 24 12.5C24 9.31928 24 8.88554 24 7.58434C24 6.28313 23.7108 5.41566 23.4217 4.69277C23.1325 3.96988 22.6988 3.24699 21.9759 2.5241C21.253 1.80121 20.6747 1.51205 19.8072 1.07831C19.0843 0.789157 18.2169 0.644578 16.9157 0.5C15.6145 0.5 15.3253 0.5 12 0.5Z" fill="#E0D8CD"/>
<path d="M12 6.28313C8.53012 6.28313 5.78313 9.03012 5.78313 12.5C5.78313 15.9699 8.53012 18.7169 12 18.7169C15.4699 18.7169 18.2169 15.9699 18.2169 12.5C18.2169 9.03012 15.4699 6.28313 12 6.28313ZM12 16.5482C9.83133 16.5482 7.95181 14.8133 7.95181 12.5C7.95181 10.3313 9.68675 8.45181 12 8.45181C14.1687 8.45181 16.0482 10.1867 16.0482 12.5C16.0482 14.6687 14.1687 16.5482 12 16.5482Z" fill="#E0D8CD"/>
<path d="M18.3614 7.58434C19.1599 7.58434 19.8072 6.93704 19.8072 6.13856C19.8072 5.34007 19.1599 4.69277 18.3614 4.69277C17.563 4.69277 16.9157 5.34007 16.9157 6.13856C16.9157 6.93704 17.563 7.58434 18.3614 7.58434Z" fill="#E0D8CD"/>
</svg>
