<svg width="25" height="25" viewBox="0 0 25 25" fill="none" xmlns="http://www.w3.org/2000/svg">
<g clip-path="url(#clip0_2003_971)">
<path d="M19.1807 7.07959H24.1807V9.07959H19.1807V7.07959ZM17.1807 12.0796H24.1807V14.0796H17.1807V12.0796ZM20.1807 17.0796H24.1807V19.0796H20.1807V17.0796ZM2.18066 22.0796C2.18066 19.9579 3.02352 17.923 4.52381 16.4227C6.0241 14.9224 8.05893 14.0796 10.1807 14.0796C12.3024 14.0796 14.3372 14.9224 15.8375 16.4227C17.3378 17.923 18.1807 19.9579 18.1807 22.0796H16.1807C16.1807 20.4883 15.5485 18.9622 14.4233 17.8369C13.2981 16.7117 11.772 16.0796 10.1807 16.0796C8.58937 16.0796 7.06324 16.7117 5.93802 17.8369C4.81281 18.9622 4.18066 20.4883 4.18066 22.0796H2.18066ZM10.1807 13.0796C6.86566 13.0796 4.18066 10.3946 4.18066 7.07959C4.18066 3.76459 6.86566 1.07959 10.1807 1.07959C13.4957 1.07959 16.1807 3.76459 16.1807 7.07959C16.1807 10.3946 13.4957 13.0796 10.1807 13.0796ZM10.1807 11.0796C12.3907 11.0796 14.1807 9.28959 14.1807 7.07959C14.1807 4.86959 12.3907 3.07959 10.1807 3.07959C7.97066 3.07959 6.18066 4.86959 6.18066 7.07959C6.18066 9.28959 7.97066 11.0796 10.1807 11.0796Z" fill="black"/>
</g>
<defs>
<clipPath id="clip0_2003_971">
<rect width="24" height="24" fill="white" transform="translate(0.180664 0.0795898)"/>
</clipPath>
</defs>
</svg>
