<svg width="25" height="25" viewBox="0 0 25 25" fill="none" xmlns="http://www.w3.org/2000/svg">
<g clip-path="url(#clip0_2003_464)">
<path d="M11.1807 2.51587C15.2487 2.51587 18.6067 5.55187 19.1147 9.48087L21.3647 13.0199C21.5127 13.2529 21.4827 13.5999 21.1397 13.7479L19.1807 14.5859V17.5159C19.1807 18.6209 18.2857 19.5159 17.1807 19.5159H15.1817L15.1807 22.5159H6.18066V18.8219C6.18066 17.6419 5.74466 16.5249 4.93666 15.5169C3.83766 14.1469 3.18066 12.4079 3.18066 10.5159C3.18066 6.09787 6.76266 2.51587 11.1807 2.51587ZM11.1807 4.51587C7.86666 4.51587 5.18066 7.20187 5.18066 10.5159C5.18066 11.9009 5.64866 13.2089 6.49666 14.2659C7.59066 15.6299 8.18066 17.1829 8.18066 18.8219V20.5159H13.1807L13.1827 17.5159H17.1807V13.2679L18.7307 12.6039L17.1877 10.1789L17.1307 9.73687C16.7467 6.76687 14.2047 4.51587 11.1807 4.51587ZM10.6507 8.27887L11.1807 8.80887L11.7107 8.27887C12.3947 7.59487 13.5027 7.59487 14.1857 8.27887C14.8697 8.96187 14.8697 10.0699 14.1857 10.7529L11.1807 13.7589L8.17566 10.7529C7.49166 10.0699 7.49166 8.96187 8.17566 8.27887C8.85866 7.59487 9.96666 7.59487 10.6507 8.27887Z" fill="black"/>
</g>
<defs>
<clipPath id="clip0_2003_464">
<rect width="24" height="24" fill="white" transform="translate(0.180664 0.515869)"/>
</clipPath>
</defs>
</svg>
