<svg width="25" height="25" viewBox="0 0 25 25" fill="none" xmlns="http://www.w3.org/2000/svg">
<g clip-path="url(#clip0_2003_636)">
<path d="M18.6807 10.3105L23.0807 21.3105H20.9257L19.7247 18.3105H15.6347L14.4357 21.3105H12.2817L16.6807 10.3105H18.6807ZM10.1807 2.31055V4.31055H16.1807V6.31055H14.2127C13.4413 8.63262 12.2101 10.7756 10.5927 12.6115C11.314 13.2552 12.0963 13.8269 12.9287 14.3185L12.1777 16.1965C11.1032 15.5871 10.0983 14.8625 9.18066 14.0355C7.39425 15.6523 5.2787 16.8627 2.97966 17.5835L2.44366 15.6545C4.4135 15.0265 6.22868 13.9899 7.77066 12.6125C6.62935 11.3205 5.67873 9.87181 4.94766 8.31055H7.18766C7.74502 9.3394 8.41333 10.3042 9.18066 11.1875C10.4308 9.74665 11.416 8.09585 12.0907 6.31155L2.18066 6.31055V4.31055H8.18066V2.31055H10.1807ZM17.6807 13.1955L16.4337 16.3105H18.9257L17.6807 13.1955Z" fill="black"/>
</g>
<defs>
<clipPath id="clip0_2003_636">
<rect width="24" height="24" fill="white" transform="translate(0.180664 0.310547)"/>
</clipPath>
</defs>
</svg>
