<svg width="25" height="25" viewBox="0 0 25 25" fill="none" xmlns="http://www.w3.org/2000/svg">
<g clip-path="url(#clip0_2003_821)">
<path d="M21.1807 3.66943C21.7327 3.66943 22.1807 4.11743 22.1807 4.66943V18.6694C22.1807 19.2214 21.7327 19.6694 21.1807 19.6694H6.63566L2.18066 23.1694V4.66943C2.18066 4.11743 2.62866 3.66943 3.18066 3.66943H21.1807ZM20.1807 5.66943H4.18066V19.0544L5.94366 17.6694H20.1807V5.66943ZM10.6957 8.08143L11.1427 8.76943C9.47466 9.67243 9.50366 11.1214 9.50366 11.4334C9.65866 11.4134 9.82166 11.4094 9.98366 11.4244C10.8857 11.5084 11.5967 12.2494 11.5967 13.1694C11.5967 14.1354 10.8127 14.9194 9.84666 14.9194C9.30966 14.9194 8.79666 14.6744 8.47266 14.3294C7.95766 13.7834 7.68066 13.1694 7.68066 12.1744C7.68066 10.4244 8.90866 8.85643 10.6957 8.08143ZM15.6957 8.08143L16.1427 8.76943C14.4747 9.67243 14.5037 11.1214 14.5037 11.4334C14.6587 11.4134 14.8217 11.4094 14.9837 11.4244C15.8857 11.5084 16.5967 12.2494 16.5967 13.1694C16.5967 14.1354 15.8127 14.9194 14.8467 14.9194C14.3097 14.9194 13.7967 14.6744 13.4727 14.3294C12.9577 13.7834 12.6807 13.1694 12.6807 12.1744C12.6807 10.4244 13.9087 8.85643 15.6957 8.08143Z" fill="black"/>
</g>
<defs>
<clipPath id="clip0_2003_821">
<rect width="24" height="24" fill="white" transform="translate(0.180664 0.669434)"/>
</clipPath>
</defs>
</svg>
