<svg width="25" height="25" viewBox="0 0 25 25" fill="none" xmlns="http://www.w3.org/2000/svg">
<g clip-path="url(#clip0_2003_769)">
<path d="M20.1807 17.5156H22.1807V19.5156H2.18066V17.5156H4.18066V10.5156C4.18066 8.39389 5.02352 6.35906 6.52381 4.85877C8.0241 3.35848 10.0589 2.51563 12.1807 2.51562C14.3024 2.51563 16.3372 3.35848 17.8375 4.85877C19.3378 6.35906 20.1807 8.39389 20.1807 10.5156V17.5156ZM18.1807 17.5156V10.5156C18.1807 8.92433 17.5485 7.3982 16.4233 6.27298C15.2981 5.14777 13.772 4.51562 12.1807 4.51562C10.5894 4.51562 9.06324 5.14777 7.93802 6.27298C6.81281 7.3982 6.18066 8.92433 6.18066 10.5156V17.5156H18.1807ZM9.18066 21.5156H15.1807V23.5156H9.18066V21.5156Z" fill="black"/>
</g>
<defs>
<clipPath id="clip0_2003_769">
<rect width="24" height="24" fill="white" transform="translate(0.180664 0.515625)"/>
</clipPath>
</defs>
</svg>
