<svg width="25" height="25" viewBox="0 0 25 25" fill="none" xmlns="http://www.w3.org/2000/svg">
<g clip-path="url(#clip0_2003_959)">
<path d="M2.18066 4.91878C2.18249 4.65616 2.28756 4.4048 2.47318 4.219C2.65879 4.0332 2.91004 3.92788 3.17266 3.92578H21.1887C21.7367 3.92578 22.1807 4.37078 22.1807 4.91878V20.9328C22.1788 21.1954 22.0738 21.4468 21.8882 21.6326C21.7025 21.8184 21.4513 21.9237 21.1887 21.9258H3.17266C2.90948 21.9255 2.65716 21.8208 2.47115 21.6346C2.28515 21.4484 2.18066 21.196 2.18066 20.9328V4.91878ZM4.18066 5.92578V19.9258H20.1807V5.92578H4.18066ZM6.18066 7.92578H12.1807V13.9258H6.18066V7.92578ZM8.18066 9.92578V11.9258H10.1807V9.92578H8.18066ZM6.18066 15.9258H18.1807V17.9258H6.18066V15.9258ZM14.1807 7.92578H18.1807V9.92578H14.1807V7.92578ZM14.1807 11.9258H18.1807V13.9258H14.1807V11.9258Z" fill="black"/>
</g>
<defs>
<clipPath id="clip0_2003_959">
<rect width="24" height="24" fill="white" transform="translate(0.180664 0.925781)"/>
</clipPath>
</defs>
</svg>
