<svg width="25" height="25" viewBox="0 0 25 25" fill="none" xmlns="http://www.w3.org/2000/svg">
<g clip-path="url(#clip0_2003_848)">
<path d="M6.18066 8.46436V7.46436C6.18066 5.87306 6.81281 4.34693 7.93802 3.22171C9.06324 2.0965 10.5894 1.46436 12.1807 1.46436C13.772 1.46436 15.2981 2.0965 16.4233 3.22171C17.5485 4.34693 18.1807 5.87306 18.1807 7.46436V8.46436H20.1807C20.4459 8.46436 20.7002 8.56971 20.8878 8.75725C21.0753 8.94479 21.1807 9.19914 21.1807 9.46436V21.4644C21.1807 21.7296 21.0753 21.9839 20.8878 22.1715C20.7002 22.359 20.4459 22.4644 20.1807 22.4644H4.18066C3.91545 22.4644 3.66109 22.359 3.47356 22.1715C3.28602 21.9839 3.18066 21.7296 3.18066 21.4644V9.46436C3.18066 9.19914 3.28602 8.94479 3.47356 8.75725C3.66109 8.56971 3.91545 8.46436 4.18066 8.46436H6.18066ZM19.1807 10.4644H5.18066V20.4644H19.1807V10.4644ZM11.1807 16.1964C10.7994 15.9762 10.5014 15.6364 10.3329 15.2297C10.1644 14.8229 10.1349 14.3719 10.2488 13.9467C10.3628 13.5214 10.6139 13.1456 10.9631 12.8776C11.3124 12.6096 11.7404 12.4643 12.1807 12.4643C12.6209 12.4643 13.0489 12.6096 13.3982 12.8776C13.7475 13.1456 13.9986 13.5214 14.1125 13.9467C14.2265 14.3719 14.1969 14.8229 14.0284 15.2297C13.8599 15.6364 13.5619 15.9762 13.1807 16.1964V18.4644H11.1807V16.1964ZM8.18066 8.46436H16.1807V7.46436C16.1807 6.40349 15.7592 5.38607 15.0091 4.63593C14.2589 3.88578 13.2415 3.46436 12.1807 3.46436C11.1198 3.46436 10.1024 3.88578 9.35224 4.63593C8.60209 5.38607 8.18066 6.40349 8.18066 7.46436V8.46436Z" fill="black"/>
</g>
<defs>
<clipPath id="clip0_2003_848">
<rect width="24" height="24" fill="white" transform="translate(0.180664 0.464355)"/>
</clipPath>
</defs>
</svg>
