<svg width="16" height="16" viewBox="0 0 16 16" fill="none" xmlns="http://www.w3.org/2000/svg">
<path d="M14.2504 11.075V12.95C14.2511 13.1241 14.2154 13.2964 14.1457 13.4558C14.076 13.6153 13.9737 13.7585 13.8454 13.8762C13.7172 13.9938 13.5657 14.0834 13.4009 14.1392C13.236 14.195 13.0612 14.2157 12.8879 14.2C10.9647 13.991 9.11726 13.3338 7.49414 12.2812C5.98403 11.3217 4.70372 10.0414 3.74414 8.53125C2.68787 6.90075 2.03054 5.04437 1.82539 3.1125C1.80977 2.93967 1.83031 2.76547 1.8857 2.60101C1.94109 2.43655 2.03012 2.28543 2.14711 2.15726C2.26411 2.0291 2.40651 1.92669 2.56525 1.85658C2.724 1.78646 2.8956 1.75016 3.06914 1.75H4.94414C5.24745 1.74701 5.54151 1.85442 5.77149 2.05221C6.00147 2.24999 6.15168 2.52465 6.19414 2.825C6.27327 3.42504 6.42004 4.0142 6.63164 4.58125C6.71573 4.80495 6.73392 5.04807 6.68408 5.2818C6.63423 5.51553 6.51842 5.73007 6.35039 5.9L5.55664 6.69375C6.44636 8.25846 7.74192 9.55403 9.30664 10.4437L10.1004 9.65C10.2703 9.48196 10.4849 9.36615 10.7186 9.31631C10.9523 9.26646 11.1954 9.28466 11.4191 9.36875C11.9862 9.58034 12.5753 9.72711 13.1754 9.80625C13.479 9.84908 13.7563 10.002 13.9545 10.2359C14.1527 10.4699 14.258 10.7685 14.2504 11.075Z" fill="#333333"/>
</svg>
