<svg width="56" height="42" viewBox="0 0 56 42" fill="none" xmlns="http://www.w3.org/2000/svg">
<g filter="url(#filter0_d_2003_387)">
<mask id="path-1-inside-1_2003_387" fill="white">
<path fill-rule="evenodd" clip-rule="evenodd" d="M4 0C2.89543 0 2 0.89543 2 2V28C2 29.1046 2.89543 30 4 30H22.7656L29.5 36.1018L36.2344 30H52C53.1046 30 54 29.1046 54 28V2C54 0.895431 53.1046 0 52 0H4Z"/>
</mask>
<path fill-rule="evenodd" clip-rule="evenodd" d="M4 0C2.89543 0 2 0.89543 2 2V28C2 29.1046 2.89543 30 4 30H22.7656L29.5 36.1018L36.2344 30H52C53.1046 30 54 29.1046 54 28V2C54 0.895431 53.1046 0 52 0H4Z" fill="white"/>
<path d="M22.7656 30L23.437 29.2589L23.1513 29H22.7656V30ZM29.5 36.1018L28.8286 36.8428L29.5 37.4512L30.1714 36.8428L29.5 36.1018ZM36.2344 30V29H35.8487L35.563 29.2589L36.2344 30ZM3 2C3 1.44772 3.44772 1 4 1V-1C2.34315 -1 1 0.343146 1 2H3ZM3 28V2H1V28H3ZM4 29C3.44772 29 3 28.5523 3 28H1C1 29.6569 2.34315 31 4 31V29ZM22.7656 29H4V31H22.7656V29ZM30.1714 35.3607L23.437 29.2589L22.0942 30.7411L28.8286 36.8428L30.1714 35.3607ZM35.563 29.2589L28.8286 35.3607L30.1714 36.8428L36.9058 30.7411L35.563 29.2589ZM52 29H36.2344V31H52V29ZM53 28C53 28.5523 52.5523 29 52 29V31C53.6569 31 55 29.6569 55 28H53ZM53 2V28H55V2H53ZM52 1C52.5523 1 53 1.44772 53 2H55C55 0.343146 53.6569 -1 52 -1V1ZM4 1H52V-1H4V1Z" fill="#D3D3D3" mask="url(#path-1-inside-1_2003_387)"/>
</g>
<defs>
<filter id="filter0_d_2003_387" x="0" y="0" width="56" height="41.1017" filterUnits="userSpaceOnUse" color-interpolation-filters="sRGB">
<feFlood flood-opacity="0" result="BackgroundImageFix"/>
<feColorMatrix in="SourceAlpha" type="matrix" values="0 0 0 0 0 0 0 0 0 0 0 0 0 0 0 0 0 0 127 0" result="hardAlpha"/>
<feOffset dy="3"/>
<feGaussianBlur stdDeviation="1"/>
<feColorMatrix type="matrix" values="0 0 0 0 0 0 0 0 0 0 0 0 0 0 0 0 0 0 0.1 0"/>
<feBlend mode="normal" in2="BackgroundImageFix" result="effect1_dropShadow_2003_387"/>
<feBlend mode="normal" in="SourceGraphic" in2="effect1_dropShadow_2003_387" result="shape"/>
</filter>
</defs>
</svg>
