<svg width="17" height="18" viewBox="0 0 17 18" fill="none" xmlns="http://www.w3.org/2000/svg">
<path d="M8.50004 10.0372C7.26659 10.0372 6.25879 9.03479 6.25879 7.79593C6.25879 6.55877 7.2649 5.56177 8.50004 5.56177C9.73349 5.56177 10.7413 6.56417 10.7413 7.80302C10.7413 9.04018 9.73518 10.0372 8.50004 10.0372ZM8.50004 5.62427C7.30444 5.62427 6.32129 6.59759 6.32129 7.80302C6.32129 9.00708 7.29598 9.98177 8.50004 9.98177C9.7041 9.98177 10.6788 9.00708 10.6788 7.80302C10.6788 6.59759 9.69564 5.62427 8.50004 5.62427Z" fill="#101828" stroke="#E0D8CD"/>
<path d="M2.53474 6.51174L2.53487 6.51118C3.25716 3.32918 6.03126 1.8855 8.50019 1.8855H8.50019H8.50019H8.5002H8.5002H8.50021H8.50021H8.50021H8.50022H8.50022H8.50023H8.50023H8.50024H8.50024H8.50025H8.50025H8.50025H8.50026H8.50026H8.50027H8.50027H8.50028H8.50028H8.50028H8.50029H8.50029H8.5003H8.50031H8.50031H8.50032H8.50032H8.50033H8.50033H8.50034H8.50035H8.50035H8.50036H8.50037H8.50037H8.50038H8.50038H8.50039H8.50039H8.50039H8.5004H8.5004H8.50041H8.50041H8.50041H8.50042H8.50042H8.50043H8.50043H8.50044H8.50044H8.50045H8.50045H8.50045H8.50046H8.50046H8.50047H8.50047H8.50048H8.50048H8.50049H8.50049H8.5005H8.5005H8.50051H8.50051H8.50052H8.50053H8.50053H8.50054H8.50054H8.50055H8.50055H8.50056H8.50057H8.50057H8.50058H8.50058H8.50059H8.5006H8.5006H8.50061H8.50062H8.50062H8.50063H8.50063H8.50064H8.50065H8.50065H8.50066H8.50067H8.50068H8.50068H8.50069H8.5007H8.5007H8.50071H8.50072H8.50073H8.50073H8.50074H8.50075H8.50076H8.50076H8.50077H8.50078H8.50079H8.5008H8.5008H8.50081H8.50082H8.50083H8.50084H8.50085H8.50085H8.50086H8.50087H8.50088H8.50089H8.5009H8.50091H8.50092H8.50093H8.50093H8.50094H8.50095H8.50096H8.50097H8.50098H8.50099H8.501H8.50101H8.50102H8.50103H8.50104H8.50105H8.50106H8.50107H8.50108H8.50109H8.5011H8.50111H8.50112H8.50114H8.50115H8.50116H8.50117H8.50118H8.50119H8.5012H8.50121H8.50123H8.50124H8.50125H8.50126H8.50127H8.50128H8.5013H8.50131H8.50132H8.50133H8.50135H8.50136H8.50137H8.50138H8.5014H8.50141H8.50142H8.50143H8.50145H8.50146H8.50147H8.50149H8.5015H8.50151H8.50153H8.50154H8.50155H8.50157H8.50158H8.5016H8.50161H8.50163H8.50164H8.50165H8.50167H8.50168H8.5017H8.50171H8.50173H8.50174H8.50176H8.50177H8.50179H8.5018H8.50182H8.50184H8.50185H8.50187H8.50188H8.5019H8.50192H8.50193H8.50195H8.50197H8.50198H8.502H8.50202H8.50203H8.50205H8.50207H8.50208H8.5021H8.50212H8.50214H8.50215H8.50217H8.50219H8.50221H8.50222H8.50224H8.50226H8.50228H8.5023H8.50232H8.50234H8.50235H8.50237H8.50239H8.50241H8.50243H8.50245H8.50247H8.50249H8.50251H8.50253H8.50255H8.50257H8.50259H8.50261H8.50263H8.50265H8.50267H8.50269H8.50271H8.50273H8.50275H8.50277H8.5028H8.50282H8.50284H8.50286H8.50288H8.5029H8.50293H8.50295H8.50297H8.50299H8.50301H8.50304H8.50306H8.50308H8.50311H8.50313H8.50315H8.50317H8.5032H8.50322H8.50325H8.50327H8.50329H8.50332H8.50334H8.50337H8.50339H8.50341H8.50344H8.50346H8.50349H8.50351H8.50354H8.50356H8.50359H8.50361H8.50364H8.50367H8.50369H8.50372H8.50374H8.50377H8.5038H8.50382H8.50385H8.50388H8.5039H8.50393H8.50396H8.50399H8.50401H8.50404H8.50407H8.5041H8.50412H8.50415H8.50418H8.50421H8.50424H8.50427H8.5043H8.50432H8.50435H8.50438H8.50441H8.50444H8.50447H8.5045H8.50453H8.50456H8.50459H8.50462H8.50465H8.50468H8.50471H8.50474H8.50477H8.50481H8.50484H8.50487H8.5049H8.50493H8.50496H8.505H8.50503H8.50506H8.50509H8.50513H8.50516H8.50519H8.50522H8.50526H8.50529H8.50532H8.50536H8.50539H8.50542H8.50546H8.50549H8.50553H8.50556H8.5056H8.50563H8.50567H8.5057H8.50574H8.50577H8.50581H8.50584H8.50588H8.50591H8.50595H8.50599H8.50602H8.50606H8.5061H8.50613H8.50617H8.50621H8.50624H8.50628H8.50632H8.50636H8.5064H8.50643H8.50647H8.50651H8.50655H8.50659H8.50663H8.50667H8.5067H8.50674H8.50678H8.50682H8.50686H8.5069H8.50694H8.50698H8.50702H8.50706H8.50711H8.50715H8.50719H8.50723H8.50727C10.9759 1.8855 13.7501 3.32887 14.4725 6.51805C15.2755 10.0657 13.1394 13.0947 11.0794 15.0781C10.3529 15.773 9.42235 16.1217 8.50019 16.1217C7.57803 16.1217 6.64748 15.773 5.92098 15.0781C3.86122 13.0949 1.72522 10.0591 2.53474 6.51174ZM14.4138 6.52447L14.4134 6.52247C13.6362 3.13386 10.7102 1.948 8.50019 1.948C6.28988 1.948 3.37078 3.13427 2.60105 6.52302C1.77328 10.1343 4.05003 13.1839 5.97183 15.027C7.39084 16.3963 9.61669 16.3962 11.0357 15.027C12.9503 13.1841 15.2264 10.135 14.4138 6.52447Z" fill="#101828" stroke="#E0D8CD"/>
</svg>
