<svg width="17" height="18" viewBox="0 0 17 18" fill="none" xmlns="http://www.w3.org/2000/svg">
<path d="M11.3333 16.6147H5.66667C3.08125 16.6147 1.59375 15.1272 1.59375 12.5417V5.45841C1.59375 2.873 3.08125 1.3855 5.66667 1.3855H11.3333C13.9187 1.3855 15.4062 2.873 15.4062 5.45841V12.5417C15.4062 15.1272 13.9187 16.6147 11.3333 16.6147ZM5.66667 2.448C3.64083 2.448 2.65625 3.43258 2.65625 5.45841V12.5417C2.65625 14.5676 3.64083 15.5522 5.66667 15.5522H11.3333C13.3592 15.5522 14.3437 14.5676 14.3437 12.5417V5.45841C14.3437 3.43258 13.3592 2.448 11.3333 2.448H5.66667Z" fill="#E0D8CD"/>
<path d="M13.1038 7.05208H11.6872C10.6105 7.05208 9.73926 6.18083 9.73926 5.10417V3.6875C9.73926 3.39708 9.98009 3.15625 10.2705 3.15625C10.5609 3.15625 10.8018 3.39708 10.8018 3.6875V5.10417C10.8018 5.59292 11.1984 5.98958 11.6872 5.98958H13.1038C13.3943 5.98958 13.6351 6.23042 13.6351 6.52083C13.6351 6.81125 13.3943 7.05208 13.1038 7.05208Z" fill="#E0D8CD"/>
<path d="M8.50033 10.2395H5.66699C5.37658 10.2395 5.13574 9.99867 5.13574 9.70825C5.13574 9.41784 5.37658 9.177 5.66699 9.177H8.50033C8.79074 9.177 9.03158 9.41784 9.03158 9.70825C9.03158 9.99867 8.79074 10.2395 8.50033 10.2395Z" fill="#E0D8CD"/>
<path d="M11.3337 13.073H5.66699C5.37658 13.073 5.13574 12.8322 5.13574 12.5417C5.13574 12.2513 5.37658 12.0105 5.66699 12.0105H11.3337C11.6241 12.0105 11.8649 12.2513 11.8649 12.5417C11.8649 12.8322 11.6241 13.073 11.3337 13.073Z" fill="#E0D8CD"/>
</svg>
