<svg width="17" height="18" viewBox="0 0 17 18" fill="none" xmlns="http://www.w3.org/2000/svg">
<path d="M6.77828 13.8308C6.6437 13.8308 6.50911 13.7812 6.40286 13.675L2.10328 9.37538C1.89786 9.16996 1.89786 8.82996 2.10328 8.62454L6.40286 4.32496C6.60828 4.11954 6.94828 4.11954 7.1537 4.32496C7.35911 4.53038 7.35911 4.87038 7.1537 5.07579L3.22953 8.99996L7.1537 12.9241C7.35911 13.1295 7.35911 13.4695 7.1537 13.675C7.05453 13.7812 6.91286 13.8308 6.77828 13.8308Z" fill="white"/>
<path d="M14.5209 9.53125H2.59961C2.30919 9.53125 2.06836 9.29042 2.06836 9C2.06836 8.70958 2.30919 8.46875 2.59961 8.46875H14.5209C14.8113 8.46875 15.0521 8.70958 15.0521 9C15.0521 9.29042 14.8113 9.53125 14.5209 9.53125Z" fill="white"/>
</svg>
