<svg width="17" height="18" viewBox="0 0 17 18" fill="none" xmlns="http://www.w3.org/2000/svg">
<path d="M9.20866 10.948H1.41699C1.12658 10.948 0.885742 10.7072 0.885742 10.4168V5.8976C0.885742 5.67093 1.0274 5.47258 1.23282 5.39467C1.44532 5.31675 1.67908 5.38052 1.82075 5.55052C2.25283 6.06761 2.92575 6.35801 3.59158 6.33676C4.15825 6.3226 4.6824 6.11011 5.07906 5.7347C5.26323 5.57886 5.41198 5.39468 5.52532 5.18927C5.7449 4.81385 5.85116 4.40301 5.84408 3.98509C5.82991 3.33342 5.54659 2.73843 5.06493 2.30634C4.89493 2.15759 4.83824 1.92383 4.91616 1.71841C4.99408 1.513 5.19242 1.37134 5.412 1.37134H10.6253C10.9157 1.37134 11.1566 1.61217 11.1566 1.90259V8.98592C11.1566 10.0768 10.2853 10.948 9.20866 10.948ZM1.94824 9.88552H9.20866C9.69741 9.88552 10.0941 9.48885 10.0941 9.0001V2.44802H6.50991C6.75783 2.90844 6.89241 3.42553 6.90658 3.96386C6.92074 4.58011 6.7649 5.18927 6.45323 5.72052C6.28323 6.0251 6.04949 6.31553 5.79449 6.52803C5.22782 7.06636 4.44865 7.3851 3.6199 7.40635C3.03198 7.4276 2.45117 7.27885 1.95533 7.00969V9.88552H1.94824Z" fill="#EBE1AC"/>
<path d="M13.4587 15.198H12.7503C12.4599 15.198 12.2191 14.9572 12.2191 14.6667C12.2191 14.178 11.8224 13.7813 11.3337 13.7813C10.8449 13.7813 10.4482 14.178 10.4482 14.6667C10.4482 14.9572 10.2074 15.198 9.91699 15.198H7.08366C6.79324 15.198 6.55241 14.9572 6.55241 14.6667C6.55241 14.178 6.15574 13.7813 5.66699 13.7813C5.17824 13.7813 4.78158 14.178 4.78158 14.6667C4.78158 14.9572 4.54074 15.198 4.25033 15.198H3.54199C2.07574 15.198 0.885742 14.008 0.885742 12.5417V10.4167C0.885742 10.1263 1.12658 9.8855 1.41699 9.8855H9.20866C9.69741 9.8855 10.0941 9.48883 10.0941 9.00008V4.04175C10.0941 3.75133 10.3349 3.5105 10.6253 3.5105H11.9287C12.6299 3.5105 13.2745 3.88593 13.6216 4.49509L14.8328 6.613C14.9249 6.77592 14.9249 6.98133 14.8328 7.14425C14.7407 7.30717 14.5636 7.40633 14.3724 7.40633H13.4587C13.3595 7.40633 13.2816 7.48425 13.2816 7.58341V9.70841C13.2816 9.80758 13.3595 9.8855 13.4587 9.8855H15.5837C15.8741 9.8855 16.1149 10.1263 16.1149 10.4167V12.5417C16.1149 14.008 14.9249 15.198 13.4587 15.198ZM13.2108 14.1355H13.4587C14.337 14.1355 15.0524 13.4201 15.0524 12.5417V10.948H13.4587C12.7787 10.948 12.2191 10.3884 12.2191 9.70841V7.58341C12.2191 6.90341 12.7716 6.34383 13.4587 6.34383L12.7007 5.01925C12.5449 4.743 12.2474 4.573 11.9287 4.573H11.1566V9.00008C11.1566 10.0767 10.2853 10.948 9.20866 10.948H1.94824V12.5417C1.94824 13.4201 2.66366 14.1355 3.54199 14.1355H3.78989C4.02364 13.3209 4.77449 12.7188 5.66699 12.7188C6.55949 12.7188 7.31034 13.3209 7.54409 14.1355H9.46365C9.6974 13.3209 10.4482 12.7188 11.3407 12.7188C12.2332 12.7188 12.977 13.3209 13.2108 14.1355Z" fill="#EBE1AC"/>
<path d="M5.66667 16.6146C4.59 16.6146 3.71875 15.7433 3.71875 14.6667C3.71875 13.59 4.59 12.7188 5.66667 12.7188C6.74333 12.7188 7.61458 13.59 7.61458 14.6667C7.61458 15.7433 6.74333 16.6146 5.66667 16.6146ZM5.66667 13.7813C5.17792 13.7813 4.78125 14.1779 4.78125 14.6667C4.78125 15.1554 5.17792 15.5521 5.66667 15.5521C6.15542 15.5521 6.55208 15.1554 6.55208 14.6667C6.55208 14.1779 6.15542 13.7813 5.66667 13.7813Z" fill="#EBE1AC"/>
<path d="M11.3337 16.6146C10.257 16.6146 9.38574 15.7433 9.38574 14.6667C9.38574 13.59 10.257 12.7188 11.3337 12.7188C12.4103 12.7188 13.2816 13.59 13.2816 14.6667C13.2816 15.7433 12.4103 16.6146 11.3337 16.6146ZM11.3337 13.7813C10.8449 13.7813 10.4482 14.1779 10.4482 14.6667C10.4482 15.1554 10.8449 15.5521 11.3337 15.5521C11.8224 15.5521 12.2191 15.1554 12.2191 14.6667C12.2191 14.1779 11.8224 13.7813 11.3337 13.7813Z" fill="#EBE1AC"/>
<path d="M15.5833 10.9479H13.4583C12.7783 10.9479 12.2188 10.3883 12.2188 9.70833V7.58333C12.2188 6.90333 12.7783 6.34375 13.4583 6.34375H14.3721C14.5633 6.34375 14.7404 6.44292 14.8325 6.61292L16.0438 8.73792C16.0863 8.81584 16.1146 8.90792 16.1146 9V10.4167C16.1146 10.7071 15.8738 10.9479 15.5833 10.9479ZM13.4583 7.40625C13.3592 7.40625 13.2813 7.48417 13.2813 7.58333V9.70833C13.2813 9.8075 13.3592 9.88542 13.4583 9.88542H15.0521V9.14168L14.0604 7.40625H13.4583Z" fill="#EBE1AC"/>
<path d="M3.54134 7.40617C1.68551 7.40617 0.176758 5.89742 0.176758 4.04159C0.176758 3.00742 0.637195 2.05115 1.43761 1.41365C2.03261 0.93907 2.78342 0.677002 3.54134 0.677002C5.39717 0.677002 6.90592 2.18575 6.90592 4.04159C6.90592 5.00492 6.48801 5.92575 5.75843 6.56325C5.14218 7.10867 4.35592 7.40617 3.54134 7.40617ZM3.54134 1.7395C3.01717 1.7395 2.52132 1.91656 2.1034 2.24948C1.55799 2.68156 1.23926 3.34034 1.23926 4.04159C1.23926 5.3095 2.27342 6.34367 3.54134 6.34367C4.09384 6.34367 4.63219 6.13825 5.06427 5.76992C5.56011 5.33075 5.84342 4.70742 5.84342 4.04159C5.84342 2.77367 4.80926 1.7395 3.54134 1.7395Z" fill="#EBE1AC"/>
<path d="M2.8331 5.28125C2.65601 5.28125 2.47892 5.18918 2.37975 5.02626C2.231 4.77126 2.30893 4.44541 2.56393 4.29666L3.19435 3.92126V3.15625C3.19435 2.86583 3.43519 2.625 3.7256 2.625C4.01602 2.625 4.25685 2.86583 4.25685 3.15625V4.21875C4.25685 4.40292 4.1577 4.58001 4.00186 4.67209L3.11645 5.20334C3.01728 5.26001 2.92518 5.28125 2.8331 5.28125Z" fill="#EBE1AC"/>
</svg>
