<svg width="20" height="20" viewBox="0 0 20 20" fill="none" xmlns="http://www.w3.org/2000/svg">
<path d="M10.8337 12.2916H1.66699C1.32533 12.2916 1.04199 12.0083 1.04199 11.6666V6.34992C1.04199 6.08325 1.20865 5.8499 1.45032 5.75823C1.70032 5.66656 1.97533 5.74159 2.142 5.94159C2.65033 6.54992 3.442 6.89158 4.22533 6.86658C4.892 6.84991 5.50864 6.59993 5.97531 6.15826C6.19198 5.97493 6.36698 5.75825 6.50032 5.51658C6.75865 5.07491 6.88366 4.59157 6.87533 4.0999C6.85866 3.33324 6.52535 2.63324 5.95868 2.12491C5.75868 1.94991 5.69199 1.67489 5.78366 1.43323C5.87533 1.19156 6.10867 1.0249 6.367 1.0249H12.5003C12.842 1.0249 13.1253 1.30824 13.1253 1.6499V9.98324C13.1253 11.2666 12.1003 12.2916 10.8337 12.2916ZM2.29199 11.0416H10.8337C11.4087 11.0416 11.8753 10.5749 11.8753 9.99992V2.29159H7.65866C7.95033 2.83325 8.10866 3.4416 8.12533 4.07493C8.14199 4.79993 7.95865 5.51658 7.59198 6.14158C7.39198 6.49991 7.11699 6.84159 6.81699 7.09159C6.15032 7.72493 5.23365 8.09992 4.25865 8.12492C3.55865 8.14992 2.88367 7.97492 2.30033 7.65825V11.0416H2.29199Z" fill="#12B76A"/>
<path d="M15.8337 17.2917H15.0003C14.6587 17.2917 14.3753 17.0084 14.3753 16.6667C14.3753 16.0917 13.9087 15.6251 13.3337 15.6251C12.7587 15.6251 12.292 16.0917 12.292 16.6667C12.292 17.0084 12.0087 17.2917 11.667 17.2917H8.33366C7.99199 17.2917 7.70866 17.0084 7.70866 16.6667C7.70866 16.0917 7.24199 15.6251 6.66699 15.6251C6.09199 15.6251 5.62533 16.0917 5.62533 16.6667C5.62533 17.0084 5.34199 17.2917 5.00033 17.2917H4.16699C2.44199 17.2917 1.04199 15.8917 1.04199 14.1667V11.6667C1.04199 11.3251 1.32533 11.0417 1.66699 11.0417H10.8337C11.4087 11.0417 11.8753 10.5751 11.8753 10.0001V4.16675C11.8753 3.82508 12.1587 3.54175 12.5003 3.54175H14.0337C14.8587 3.54175 15.617 3.98343 16.0253 4.70009L17.4503 7.19175C17.5587 7.38342 17.5587 7.62508 17.4503 7.81675C17.342 8.00842 17.1336 8.12508 16.9086 8.12508H15.8337C15.717 8.12508 15.6253 8.21675 15.6253 8.33341V10.8334C15.6253 10.9501 15.717 11.0417 15.8337 11.0417H18.3337C18.6753 11.0417 18.9587 11.3251 18.9587 11.6667V14.1667C18.9587 15.8917 17.5587 17.2917 15.8337 17.2917ZM15.542 16.0417H15.8337C16.867 16.0417 17.7087 15.2001 17.7087 14.1667V12.2917H15.8337C15.0337 12.2917 14.3753 11.6334 14.3753 10.8334V8.33341C14.3753 7.53341 15.0253 6.87508 15.8337 6.87508L14.942 5.31675C14.7587 4.99175 14.4087 4.79175 14.0337 4.79175H13.1253V10.0001C13.1253 11.2667 12.1003 12.2917 10.8337 12.2917H2.29199V14.1667C2.29199 15.2001 3.13366 16.0417 4.16699 16.0417H4.45864C4.73364 15.0834 5.61699 14.3751 6.66699 14.3751C7.71699 14.3751 8.60035 15.0834 8.87535 16.0417H11.1336C11.4086 15.0834 12.292 14.3751 13.342 14.3751C14.392 14.3751 15.267 15.0834 15.542 16.0417Z" fill="#12B76A"/>
<path d="M6.66667 18.9583C5.4 18.9583 4.375 17.9333 4.375 16.6667C4.375 15.4 5.4 14.375 6.66667 14.375C7.93333 14.375 8.95833 15.4 8.95833 16.6667C8.95833 17.9333 7.93333 18.9583 6.66667 18.9583ZM6.66667 15.625C6.09167 15.625 5.625 16.0917 5.625 16.6667C5.625 17.2417 6.09167 17.7083 6.66667 17.7083C7.24167 17.7083 7.70833 17.2417 7.70833 16.6667C7.70833 16.0917 7.24167 15.625 6.66667 15.625Z" fill="#12B76A"/>
<path d="M13.3337 18.9583C12.067 18.9583 11.042 17.9333 11.042 16.6667C11.042 15.4 12.067 14.375 13.3337 14.375C14.6003 14.375 15.6253 15.4 15.6253 16.6667C15.6253 17.9333 14.6003 18.9583 13.3337 18.9583ZM13.3337 15.625C12.7587 15.625 12.292 16.0917 12.292 16.6667C12.292 17.2417 12.7587 17.7083 13.3337 17.7083C13.9087 17.7083 14.3753 17.2417 14.3753 16.6667C14.3753 16.0917 13.9087 15.625 13.3337 15.625Z" fill="#12B76A"/>
<path d="M18.3333 12.2917H15.8333C15.0333 12.2917 14.375 11.6333 14.375 10.8333V8.33333C14.375 7.53333 15.0333 6.875 15.8333 6.875H16.9083C17.1333 6.875 17.3417 6.99167 17.45 7.19167L18.875 9.69167C18.925 9.78334 18.9583 9.89167 18.9583 10V11.6667C18.9583 12.0083 18.675 12.2917 18.3333 12.2917ZM15.8333 8.125C15.7167 8.125 15.625 8.21667 15.625 8.33333V10.8333C15.625 10.95 15.7167 11.0417 15.8333 11.0417H17.7083V10.1667L16.5416 8.125H15.8333Z" fill="#12B76A"/>
<path d="M4.15801 8.12492C3.00801 8.12492 1.92468 7.6249 1.19135 6.7499C1.07468 6.6249 0.949696 6.4499 0.841363 6.28323C0.449696 5.69157 0.233029 4.99157 0.216363 4.25824C0.183029 3.04157 0.699706 1.8999 1.63304 1.1249C2.34137 0.541565 3.19133 0.224919 4.09133 0.208252C5.07467 0.216585 6.05804 0.541587 6.79137 1.19992C7.62471 1.93325 8.10803 2.95826 8.13303 4.07493C8.1497 4.79993 7.96635 5.51658 7.59968 6.14158C7.39968 6.49991 7.12469 6.84159 6.82469 7.09159C6.15802 7.72493 5.24135 8.09992 4.26635 8.12492C4.22468 8.12492 4.19135 8.12492 4.15801 8.12492ZM4.15801 1.45825C4.14135 1.45825 4.12468 1.45825 4.10801 1.45825C3.49968 1.46659 2.91633 1.69159 2.42467 2.09159C1.79133 2.61659 1.44135 3.39992 1.45802 4.22492C1.47469 4.72492 1.61636 5.19994 1.88303 5.5916C1.95803 5.70827 2.03301 5.81657 2.12468 5.91656C2.65801 6.5499 3.44969 6.88324 4.22469 6.86658C4.89136 6.84991 5.50801 6.59993 5.97467 6.15826C6.19134 5.97493 6.36634 5.75825 6.49968 5.51658C6.75801 5.07491 6.88302 4.59157 6.87469 4.0999C6.85802 3.33324 6.52471 2.63324 5.95804 2.12491C5.45804 1.69991 4.82468 1.45825 4.15801 1.45825Z" fill="#12B76A"/>
<path d="M3.70807 5.6249C3.54973 5.6249 3.39972 5.56655 3.27472 5.44988L2.43304 4.64991C2.18304 4.40825 2.17475 4.01658 2.41641 3.76658C2.65808 3.51658 3.04974 3.50823 3.29974 3.7499L3.70807 4.14154L5.01641 2.87491C5.26641 2.63324 5.65807 2.64154 5.89974 2.89154C6.14141 3.14154 6.13306 3.53326 5.88306 3.77492L4.14137 5.45822C4.01637 5.56655 3.85807 5.6249 3.70807 5.6249Z" fill="#12B76A"/>
</svg>
