<svg width="17" height="18" viewBox="0 0 17 18" fill="none" xmlns="http://www.w3.org/2000/svg">
<path d="M8.50011 9.92078C8.40803 9.92078 8.31594 9.89954 8.23094 9.84996L1.97637 6.23039C1.72137 6.08164 1.63635 5.75578 1.7851 5.50078C1.93385 5.24578 2.2597 5.16077 2.50762 5.30952L8.49302 8.77328L14.443 5.33079C14.698 5.18204 15.0239 5.27414 15.1655 5.52205C15.3143 5.77705 15.2222 6.10286 14.9743 6.25161L8.76219 9.84996C8.68428 9.89246 8.5922 9.92078 8.50011 9.92078Z" fill="#EBE1AC"/>
<path d="M8.5 16.3382C8.20958 16.3382 7.96875 16.0973 7.96875 15.8069V9.38232C7.96875 9.09191 8.20958 8.85107 8.5 8.85107C8.79042 8.85107 9.03125 9.09191 9.03125 9.38232V15.8069C9.03125 16.0973 8.79042 16.3382 8.5 16.3382Z" fill="#EBE1AC"/>
<path d="M8.49971 16.6146C7.87638 16.6146 7.25304 16.48 6.77138 16.2038L2.98888 14.1071C1.96179 13.5405 1.1543 12.1734 1.1543 10.9975V6.98834C1.1543 5.81251 1.96179 4.45254 2.98888 3.87879L6.77138 1.78211C7.73471 1.23669 9.25054 1.23669 10.221 1.78211L14.0035 3.87879C15.0305 4.44546 15.838 5.81251 15.838 6.98834V10.9975C15.838 11.0684 15.838 11.125 15.8239 11.1958C15.7885 11.38 15.6539 11.5358 15.4768 11.5925C15.2997 11.6563 15.1014 11.6138 14.9526 11.4934C14.138 10.785 12.8772 10.7567 12.0201 11.4438C11.4747 11.8759 11.156 12.5346 11.156 13.2358C11.156 13.6538 11.2693 14.0646 11.4889 14.4188C11.5455 14.518 11.6022 14.5959 11.666 14.6738C11.7722 14.7942 11.8147 14.9571 11.7864 15.1129C11.7581 15.2688 11.6589 15.4034 11.5172 15.4813L10.221 16.1967C9.73929 16.48 9.12304 16.6146 8.49971 16.6146ZM8.49971 2.44794C8.06054 2.44794 7.61428 2.54003 7.29554 2.71711L3.51304 4.8138C2.82595 5.18921 2.23096 6.20918 2.23096 6.98834V10.9975C2.23096 11.7767 2.83304 12.7967 3.51304 13.1721L7.29554 15.2688C7.94012 15.63 9.06637 15.63 9.71095 15.2688L10.5043 14.8296C10.2422 14.355 10.1006 13.8025 10.1006 13.2358C10.1006 12.2017 10.561 11.2455 11.3614 10.608C12.3247 9.83587 13.706 9.67293 14.7826 10.1333V6.9742C14.7826 6.19504 14.1805 5.17503 13.5005 4.79962L9.71805 2.70293C9.38513 2.54002 8.93888 2.44794 8.49971 2.44794Z" fill="#EBE1AC"/>
<path d="M13.4583 16.6147C12.2825 16.6147 11.1775 15.9913 10.5825 14.9784C10.2638 14.4684 10.0938 13.8663 10.0938 13.2501C10.0938 12.2159 10.5542 11.2596 11.3546 10.6221C11.9496 10.1476 12.7004 9.8855 13.4583 9.8855C15.3142 9.8855 16.8229 11.3942 16.8229 13.2501C16.8229 13.8663 16.6529 14.4684 16.3342 14.9855C16.1642 15.283 15.9304 15.5522 15.6612 15.7788C15.0733 16.3172 14.2871 16.6147 13.4583 16.6147ZM13.4583 10.948C12.9342 10.948 12.4383 11.1251 12.0204 11.458C11.475 11.8901 11.1562 12.5488 11.1562 13.2501C11.1562 13.668 11.2696 14.0788 11.4892 14.433C11.9071 15.1413 12.6437 15.5522 13.4583 15.5522C14.0179 15.5522 14.5563 15.3468 14.9671 14.9784C15.1513 14.8226 15.3071 14.6384 15.4204 14.4401C15.6471 14.0788 15.7604 13.668 15.7604 13.2501C15.7604 11.9822 14.7262 10.948 13.4583 10.948Z" fill="#EBE1AC"/>
<path d="M14.2165 14.5179C14.0819 14.5179 13.9473 14.4684 13.841 14.3621L12.3464 12.8675C12.141 12.6621 12.141 12.3221 12.3464 12.1167C12.5519 11.9113 12.8919 11.9113 13.0973 12.1167L14.5919 13.6113C14.7973 13.8167 14.7973 14.1567 14.5919 14.3621C14.4856 14.4684 14.351 14.5179 14.2165 14.5179Z" fill="#EBE1AC"/>
<path d="M12.7004 14.5392C12.5658 14.5392 12.4312 14.4896 12.325 14.3834C12.1195 14.1779 12.1195 13.8379 12.325 13.6325L13.8196 12.1379C14.025 11.9325 14.365 11.9325 14.5704 12.1379C14.7758 12.3434 14.7758 12.6834 14.5704 12.8888L13.0758 14.3834C12.9695 14.4896 12.835 14.5392 12.7004 14.5392Z" fill="#EBE1AC"/>
</svg>
