<svg width="17" height="18" viewBox="0 0 17 18" fill="none" xmlns="http://www.w3.org/2000/svg">
<path d="M8.50033 16.6147C4.29991 16.6147 0.885742 13.2005 0.885742 9.00008C0.885742 4.79966 4.29991 1.3855 8.50033 1.3855C12.7007 1.3855 16.1149 4.79966 16.1149 9.00008C16.1149 13.2005 12.7007 16.6147 8.50033 16.6147ZM8.50033 2.448C4.88783 2.448 1.94824 5.38758 1.94824 9.00008C1.94824 12.6126 4.88783 15.5522 8.50033 15.5522C12.1128 15.5522 15.0524 12.6126 15.0524 9.00008C15.0524 5.38758 12.1128 2.448 8.50033 2.448Z" fill="#EBE1AC"/>
<path d="M8.5 10.2397C8.20958 10.2397 7.96875 9.99883 7.96875 9.70841V6.16675C7.96875 5.87633 8.20958 5.6355 8.5 5.6355C8.79042 5.6355 9.03125 5.87633 9.03125 6.16675V9.70841C9.03125 9.99883 8.79042 10.2397 8.5 10.2397Z" fill="#EBE1AC"/>
<path d="M8.50033 12.5418C8.40824 12.5418 8.31616 12.5205 8.23116 12.4851C8.14616 12.4497 8.06824 12.4001 7.99741 12.3364C7.93366 12.2655 7.88408 12.1947 7.84866 12.1026C7.81324 12.0176 7.79199 11.9255 7.79199 11.8335C7.79199 11.7414 7.81324 11.6493 7.84866 11.5643C7.88408 11.4793 7.93366 11.4014 7.99741 11.3305C8.06824 11.2668 8.14616 11.2172 8.23116 11.1818C8.40116 11.111 8.59949 11.111 8.76949 11.1818C8.85449 11.2172 8.93241 11.2668 9.00324 11.3305C9.06699 11.4014 9.11658 11.4793 9.15199 11.5643C9.18741 11.6493 9.20866 11.7414 9.20866 11.8335C9.20866 11.9255 9.18741 12.0176 9.15199 12.1026C9.11658 12.1947 9.06699 12.2655 9.00324 12.3364C8.93241 12.4001 8.85449 12.4497 8.76949 12.4851C8.68449 12.5205 8.59241 12.5418 8.50033 12.5418Z" fill="#EBE1AC"/>
</svg>
