<svg width="16" height="16" viewBox="0 0 16 16" fill="none" xmlns="http://www.w3.org/2000/svg">
<g clip-path="url(#clip0_0_2270)">
<path fill-rule="evenodd" clip-rule="evenodd" d="M8.00033 2.00002C4.68662 2.00002 2.00033 4.68631 2.00033 8.00002C2.00033 11.3137 4.68662 14 8.00033 14C11.314 14 14.0003 11.3137 14.0003 8.00002C14.0003 4.68631 11.314 2.00002 8.00033 2.00002ZM0.666992 8.00002C0.666992 3.94993 3.95024 0.666687 8.00033 0.666687C12.0504 0.666687 15.3337 3.94993 15.3337 8.00002C15.3337 12.0501 12.0504 15.3334 8.00033 15.3334C3.95024 15.3334 0.666992 12.0501 0.666992 8.00002Z" fill="#7A7A7A"/>
<path fill-rule="evenodd" clip-rule="evenodd" d="M10.4717 5.52862C10.7321 5.78897 10.7321 6.21107 10.4717 6.47142L6.47173 10.4714C6.21138 10.7318 5.78927 10.7318 5.52892 10.4714C5.26857 10.2111 5.26857 9.78896 5.52892 9.52861L9.52892 5.52862C9.78927 5.26827 10.2114 5.26827 10.4717 5.52862Z" fill="#7A7A7A"/>
<path fill-rule="evenodd" clip-rule="evenodd" d="M5.52892 5.52862C5.78927 5.26827 6.21138 5.26827 6.47173 5.52862L10.4717 9.52861C10.7321 9.78896 10.7321 10.2111 10.4717 10.4714C10.2114 10.7318 9.78927 10.7318 9.52892 10.4714L5.52892 6.47142C5.26857 6.21107 5.26857 5.78897 5.52892 5.52862Z" fill="#7A7A7A"/>
</g>
<defs>
<clipPath id="clip0_0_2270">
<rect width="16" height="16" fill="white"/>
</clipPath>
</defs>
</svg>
